<svg xmlns="http://www.w3.org/2000/svg" viewBox="0 0 180 180" fill="#1976d2">
  <rect width="180" height="180" fill="#1976d2" rx="40"/>
  <path d="M90,15L45,30V82.5C45,123.75 68.4,162.75 90,172.5C111.6,162.75 135,123.75 135,82.5V30L90,15M90,52.5C100.5,52.5 111,64.5 111,75.75V83.25C114,85.5 120,90 120,96V121.5C120,128.25 113.25,135 106.5,135H73.5C66.75,135 60,128.25 60,121.5V96C60,90 66,85.5 69,83.25V75.75C69,64.5 79.5,52.5 90,52.5M90,61.5C84,61.5 78.75,65.25 78.75,71.25V83.25H101.25V71.25C101.25,65.25 96,61.5 90,61.5Z" fill="white" />
</svg>

